<svg aria-hidden="true" data-prefix="fab" data-icon="discord" class="svg-inline--fa fa-discord fa-w-14" xmlns="http://www.w3.org/2000/svg" viewBox="0 0 448 512"><path fill="#fec400" d="M297 243c0 16-11 29-26 29-14 0-26-13-26-29s12-28 26-28c15 0 26 13 26 28zm-119-28c-15 0-26 13-26 28s11 29 26 29c14 0 26-13 26-29 0-15-12-28-26-28zM448 53v459c-64-57-44-38-119-108l14 48H52c-28 0-52-24-52-53V53C0 24 24 0 52 0h344c28 0 52 24 52 53zm-73 242c0-82-37-149-37-149-37-27-72-27-72-27l-3 4c43 14 63 33 63 33-60-33-132-33-191-8l-15 8s21-20 67-34l-2-3s-35 0-72 27c0 0-37 67-37 149 0 0 22 38 78 39l17-21c-32-10-45-30-45-30l11 6a187 187 0 00189-6s-13 21-46 31l17 20c56-1 78-39 78-39z"/></svg>