<svg aria-hidden="true" data-prefix="fab" data-icon="teamspeak" class="svg-inline--fa fa-teamspeak fa-w-16" xmlns="http://www.w3.org/2000/svg" viewBox="0 0 512 512"><path fill="#fec400" d="M244 347c3-13-12-30-32-49-21-19-48-39-64-47-21-12-41-1-46 23-5 26 0 52 15 74 10 16 25 23 43 24 12 1 52 2 62-1 12-4 20-12 22-24zm205 21a5 5 0 00-8 2c-8 25-45 112-172 121-150 11 80 44 145-6 23-17 48-35 47-85-1-10-5-27-12-32zm62-123c0-19-8-33-26-42-3-1-5-3-6-6a223 223 0 00-40-94c-1-1-4-3-2-5 8-11-1-18-7-24Q321-31 177 13c-40 12-73 36-102 67-4 5-6 10-3 15 3 4 2 6-1 9-19 28-33 59-39 92-1 4-3 6-6 8-14 7-23 18-25 34l-1 26v21c0 31 21 51 52 49 7 0 11-4 12-11 2-78-3-96 3-126A193 193 0 01346 65c66 37 101 94 103 170v84c0 7 2 13 9 15 24 5 49-12 53-37 3-17 1-35 1-52zM352 377c36 2 59-29 58-61-2-45-66-16-88-8-73 28-45 55-22 61z"/></svg>